<?xml version="1.0" encoding="UTF-8" standalone="no"?>

<svg
   width="600"
   height="600"
   viewBox="0 0 600 600"
   version="1.1"
   id="svg1"
   inkscape:version="1.4.1 (cac3661, 2025-03-31)"
   sodipodi:docname="Horizon logo.svg"
   xmlns:inkscape="http://www.inkscape.org/namespaces/inkscape"
   xmlns:sodipodi="http://sodipodi.sourceforge.net/DTD/sodipodi-0.dtd"
   xmlns:xlink="http://www.w3.org/1999/xlink"
   xmlns="http://www.w3.org/2000/svg"
   xmlns:svg="http://www.w3.org/2000/svg">
  <sodipodi:namedview
     id="namedview1"
     pagecolor="#ffffff"
     bordercolor="#000000"
     borderopacity="0.25"
     inkscape:showpageshadow="2"
     inkscape:pageopacity="0.0"
     inkscape:pagecheckerboard="0"
     inkscape:deskcolor="#d1d1d1"
     inkscape:document-units="px"
     showgrid="true"
     inkscape:zoom="0.76464844"
     inkscape:cx="208.59259"
     inkscape:cy="357.68071"
     inkscape:window-width="1920"
     inkscape:window-height="1001"
     inkscape:window-x="-9"
     inkscape:window-y="-9"
     inkscape:window-maximized="1"
     inkscape:current-layer="layer1">
    <inkscape:grid
       id="grid1"
       units="px"
       originx="0"
       originy="0"
       spacingx="1"
       spacingy="1"
       empcolor="#0099e5"
       empopacity="0.30196078"
       color="#0099e5"
       opacity="0.14901961"
       empspacing="5"
       enabled="true"
       visible="true" />
  </sodipodi:namedview>
  <defs
     id="defs1">
    <linearGradient
       id="linearGradient34"
       inkscape:collect="always">
      <stop
         style="stop-color:#000000;stop-opacity:0.89999998;"
         offset="0.95085067"
         id="stop35" />
      <stop
         style="stop-color:#ff0000;stop-opacity:1;"
         offset="1"
         id="stop36" />
    </linearGradient>
    <linearGradient
       id="linearGradient33"
       inkscape:collect="always">
      <stop
         style="stop-color:#000000;stop-opacity:0.89999998;"
         offset="0.84120983"
         id="stop33" />
      <stop
         style="stop-color:#ff0000;stop-opacity:1;"
         offset="1"
         id="stop34" />
    </linearGradient>
    <inkscape:path-effect
       effect="bspline"
       id="path-effect31"
       is_visible="true"
       lpeversion="1.3"
       weight="33.333333"
       steps="2"
       helper_size="0"
       apply_no_weight="true"
       apply_with_weight="true"
       only_selected="false"
       uniform="false" />
    <linearGradient
       id="linearGradient16"
       inkscape:collect="always">
      <stop
         style="stop-color:#000000;stop-opacity:1;"
         offset="0"
         id="stop16" />
      <stop
         style="stop-color:#070000;stop-opacity:1;"
         offset="0"
         id="stop26" />
      <stop
         style="stop-color:#ff0000;stop-opacity:1;"
         offset="1"
         id="stop17" />
    </linearGradient>
    <linearGradient
       id="linearGradient12"
       inkscape:collect="always">
      <stop
         style="stop-color:#ff0000;stop-opacity:1;"
         offset="0.54474711"
         id="stop10" />
      <stop
         style="stop-color:#7f0000;stop-opacity:0.51086956;"
         offset="0.84308153"
         id="stop13" />
      <stop
         style="stop-color:#000000;stop-opacity:0.25490198;"
         offset="0.92835009"
         id="stop14" />
      <stop
         style="stop-color:#0100ff;stop-opacity:0.2173913;"
         offset="1"
         id="stop12" />
    </linearGradient>
    <inkscape:path-effect
       effect="bspline"
       id="path-effect2"
       is_visible="true"
       lpeversion="1.3"
       weight="33.333333"
       steps="2"
       helper_size="0"
       apply_no_weight="true"
       apply_with_weight="true"
       only_selected="false"
       uniform="false" />
    <inkscape:path-effect
       effect="bspline"
       id="path-effect12"
       is_visible="true"
       lpeversion="1.3"
       weight="33.333333"
       steps="2"
       helper_size="0"
       apply_no_weight="true"
       apply_with_weight="true"
       only_selected="false"
       uniform="false" />
    <linearGradient
       id="swatch3">
      <stop
         style="stop-color:#000018;stop-opacity:1;"
         offset="0"
         id="stop4" />
      <stop
         style="stop-color:#000000;stop-opacity:1;"
         offset="0.97276264"
         id="stop6" />
      <stop
         style="stop-color:#000000;stop-opacity:1;"
         offset="1"
         id="stop5" />
    </linearGradient>
    <linearGradient
       id="linearGradient1"
       inkscape:collect="always">
      <stop
         style="stop-color:#000000;stop-opacity:1;"
         offset="0.81906617"
         id="stop1" />
      <stop
         style="stop-color:#000000;stop-opacity:0.51764706;"
         offset="0.92996109"
         id="stop3" />
      <stop
         style="stop-color:#000000;stop-opacity:0;"
         offset="1"
         id="stop2" />
    </linearGradient>
    <radialGradient
       inkscape:collect="always"
       xlink:href="#linearGradient1"
       id="radialGradient2"
       cx="125"
       cy="125"
       fx="125"
       fy="125"
       r="125"
       gradientUnits="userSpaceOnUse"
       gradientTransform="translate(7.0022159,7.0022159)" />
    <filter
       inkscape:collect="always"
       style="color-interpolation-filters:sRGB"
       id="filter6"
       x="-0.033078612"
       y="-0.033078612"
       width="1.0661572"
       height="1.0661572">
      <feGaussianBlur
         inkscape:collect="always"
         stdDeviation="2.7975614"
         id="feGaussianBlur6" />
    </filter>
    <inkscape:path-effect
       effect="bspline"
       id="path-effect12-1"
       is_visible="true"
       lpeversion="1.3"
       weight="33.333333"
       steps="2"
       helper_size="0"
       apply_no_weight="true"
       apply_with_weight="true"
       only_selected="false"
       uniform="false" />
    <radialGradient
       inkscape:collect="always"
       xlink:href="#linearGradient12"
       id="radialGradient8"
       cx="295.80563"
       cy="312.9679"
       fx="295.80563"
       fy="312.9679"
       r="119.05533"
       gradientTransform="matrix(2.9611113,2.7423533,-0.78479277,0.84739577,-329.45935,-764.19043)"
       gradientUnits="userSpaceOnUse" />
    <radialGradient
       inkscape:collect="always"
       xlink:href="#linearGradient16"
       id="radialGradient17"
       cx="134.9169"
       cy="135.26418"
       fx="134.9169"
       fy="135.26418"
       r="235.06911"
       gradientTransform="matrix(1,0,0,1.0078226,0,-1.0581129)"
       gradientUnits="userSpaceOnUse" />
    <inkscape:path-effect
       effect="bspline"
       id="path-effect12-2"
       is_visible="true"
       lpeversion="1.3"
       weight="33.333333"
       steps="2"
       helper_size="0"
       apply_no_weight="true"
       apply_with_weight="true"
       only_selected="false"
       uniform="false" />
    <radialGradient
       inkscape:collect="always"
       xlink:href="#linearGradient33"
       id="radialGradient34"
       cx="535.23151"
       cy="345.25076"
       fx="535.23151"
       fy="345.25076"
       r="124.75294"
       gradientTransform="matrix(1,0,0,1.6472028,0,-223.44725)"
       gradientUnits="userSpaceOnUse" />
    <radialGradient
       inkscape:collect="always"
       xlink:href="#linearGradient34"
       id="radialGradient36"
       cx="535.23151"
       cy="345.25079"
       fx="535.23151"
       fy="345.25079"
       r="124.75291"
       gradientTransform="matrix(1,0,0,1.647203,0,-223.44735)"
       gradientUnits="userSpaceOnUse" />
    <filter
       inkscape:collect="always"
       style="color-interpolation-filters:sRGB"
       id="filter36"
       x="-0.011902618"
       y="-0.011902625"
       width="1.0238052"
       height="1.0238053">
      <feGaussianBlur
         inkscape:collect="always"
         stdDeviation="1.6920972"
         id="feGaussianBlur36" />
    </filter>
  </defs>
  <g
     inkscape:label="Слой 1"
     inkscape:groupmode="layer"
     id="layer1"
     transform="matrix(1.0031392,0,0,1.0031392,-101.25583,-101.25583)">
    <rect
       style="mix-blend-mode:normal;fill:#ffffff;fill-opacity:1;stroke:#ff00ff;stroke-width:5.78531;stroke-linecap:round;stroke-linejoin:miter;stroke-dasharray:none;stroke-opacity:1;paint-order:markers fill stroke;filter:url(#filter36)"
       id="rect36"
       width="584.21503"
       height="584.21466"
       x="107.89265"
       y="107.89265"
       ry="700"
       inkscape:label="фон" />
    <circle
       style="mix-blend-mode:normal;fill:url(#radialGradient2);fill-opacity:1;stroke:#000000;stroke-width:3;stroke-linejoin:bevel;stroke-dasharray:none;stroke-opacity:1;filter:url(#filter6)"
       id="path1"
       cx="132.00221"
       cy="132.00221"
       r="124.161"
       transform="matrix(0.944286,0,0,0.944286,275.35216,275.35216)"
       inkscape:label="горизонт" />
    <g
       id="g1"
       transform="matrix(1.1030412,0,0,1.1030412,251.87465,251.87465)"
       inkscape:label="Симетрия"
       style="display:none">
      <path
         style="fill:none;fill-opacity:1;stroke:#ffc900;stroke-width:2;stroke-linejoin:bevel;stroke-dasharray:none;stroke-opacity:1"
         d="M 260,0 V 520"
         id="path8"
         transform="matrix(0.90658445,0,0,0.90658445,-101.42382,-101.42382)" />
      <path
         style="fill:none;fill-opacity:1;stroke:#ffc900;stroke-width:2.01358;stroke-linejoin:bevel;stroke-dasharray:none;stroke-opacity:1"
         d="M -100.71191,369.28805 369.28817,-100.71191"
         id="path7" />
      <path
         style="fill:none;fill-opacity:1;stroke:#ffc900;stroke-width:2.01358;stroke-linejoin:bevel;stroke-dasharray:none;stroke-opacity:1"
         d="M 369.28817,369.28805 -100.71191,-100.71191"
         id="path7-1" />
      <ellipse
         style="fill:none;fill-opacity:1;stroke:#ffc900;stroke-width:2.01345;stroke-linejoin:bevel;stroke-dasharray:none;stroke-opacity:1"
         id="path6-8"
         cx="135"
         cy="134.99969"
         rx="133.99327"
         ry="133.99297" />
      <ellipse
         style="fill:none;fill-opacity:1;stroke:#ffc900;stroke-width:2.01345;stroke-linejoin:bevel;stroke-dasharray:none;stroke-opacity:1"
         id="path6"
         cx="400"
         cy="399.99969"
         rx="133.99327"
         ry="133.99297"
         transform="matrix(0.90658445,0,0,0.90658445,-228.34564,-228.34564)" />
    </g>
    <g
       id="g8"
       transform="matrix(1.1030412,0,0,1.1030412,251.87465,251.87465)"
       inkscape:label="акреция"
       style="fill:url(#radialGradient17);stroke-width:0.999963;stroke-dasharray:none">
      <path
         style="display:inline;fill:url(#radialGradient34);fill-opacity:0.587838;stroke:#000000;stroke-width:5;stroke-linecap:round;stroke-linejoin:miter;stroke-dasharray:none;stroke-opacity:1;paint-order:markers fill stroke"
         d="m 420.03451,547.86324 c -7.30399,0.44155 -7.63093,0.41431 -6.70458,0.33258 0.92635,-0.0817 3.10596,-0.21795 5.55809,-0.51765 2.45213,-0.29971 5.17663,-0.76287 8.70497,-1.48489 3.52834,-0.72201 7.86031,-1.70284 11.53511,-2.65304 3.6748,-0.9502 6.69219,-1.86972 9.51555,-2.81652 2.82336,-0.94679 5.45251,-1.92081 7.96254,-2.91869 2.51003,-0.99788 4.90079,-2.01957 7.02597,-3.01404 2.12518,-0.99448 3.98466,-1.96168 5.78245,-2.90081 1.7978,-0.93913 3.5338,-1.85014 5.31696,-2.92216 1.78315,-1.07202 3.61334,-2.30499 5.81926,-3.80772 2.20593,-1.50272 4.78747,-3.27512 7.06083,-4.90308 2.27336,-1.62796 4.23841,-3.11138 6.62736,-5.08611 2.38895,-1.97474 5.20167,-4.44069 8.1108,-7.21977 2.90913,-2.77908 5.9145,-5.87115 8.06264,-8.1397 2.14815,-2.26855 3.43891,-3.71344 4.96572,-5.58703 1.52681,-1.87359 3.28958,-4.17578 4.5852,-5.95306 1.29563,-1.77727 2.12403,-3.0295 3.1114,-4.52742 0.98737,-1.49791 2.13365,-3.24141 3.42446,-5.36545 1.2908,-2.12405 2.72606,-4.62852 3.86756,-6.69478 1.1415,-2.06626 1.98917,-3.69417 2.69237,-5.10057 0.7032,-1.4064 1.26189,-2.59121 1.97472,-4.15173 0.71283,-1.56053 1.57977,-3.49668 2.3215,-5.30766 0.74174,-1.81099 1.35822,-3.49669 2.00362,-5.24988 0.64541,-1.75318 1.31969,-3.57374 1.86877,-5.17762 0.54907,-1.60388 0.9729,-2.99097 1.45454,-4.71044 0.48165,-1.71946 1.02107,-3.77121 1.47382,-5.54366 0.45275,-1.77245 0.81878,-3.2655 1.16557,-4.95607 0.34678,-1.69057 0.67429,-3.57856 0.98736,-5.41844 0.31307,-1.83988 0.61168,-3.63155 0.87177,-5.29322 0.26009,-1.66167 0.48164,-3.19326 0.66948,-5.15354 0.18784,-1.96029 0.34196,-4.34917 0.46237,-6.55511 0.12041,-2.20593 0.2071,-4.22877 0.25527,-6.33356 0.0482,-2.10478 0.0578,-4.29138 0,-6.3191 -0.0578,-2.02773 -0.18302,-3.89645 -0.36604,-5.91454 -0.18303,-2.01809 -0.42384,-4.18542 -0.69356,-6.44915 -0.26972,-2.26372 -0.56833,-4.62371 -0.95364,-7.01267 -0.38532,-2.38895 -0.85731,-4.80673 -1.4112,-7.37389 -0.5539,-2.56716 -1.18965,-5.28356 -1.82542,-7.64843 -0.63577,-2.36488 -1.27152,-4.37809 -2.01807,-6.68034 -0.74655,-2.30226 -1.60385,-4.89343 -2.36484,-7.00304 -0.761,-2.1096 -1.42565,-3.73751 -2.23,-5.64 -0.80434,-1.9025 -1.74834,-4.07946 -2.69236,-6.03494 -0.94402,-1.95548 -1.88802,-3.68934 -2.97171,-5.64963 -1.0837,-1.96029 -2.30704,-4.14689 -3.4967,-6.17943 -1.18966,-2.03254 -2.34558,-3.9109 -3.48707,-5.64964 -1.1415,-1.73873 -2.26851,-3.33774 -3.31849,-4.77304 -1.04999,-1.4353 -2.02289,-2.70681 -3.24626,-4.27215 -1.22337,-1.56534 -2.69716,-3.42443 -4.19026,-5.18725 -1.49309,-1.76282 -3.00541,-3.42926 -4.62855,-5.11983 -1.62314,-1.69057 -3.35701,-3.40517 -5.14872,-5.14872 -1.79172,-1.74355 -3.64118,-3.51595 -5.71224,-5.33657 -2.07107,-1.82061 -4.36363,-3.68933 -6.44433,-5.33656 -2.08071,-1.64722 -3.94943,-3.07285 -5.91454,-4.40219 -1.96511,-1.32934 -4.02648,-2.56231 -6.58883,-4.13246 -2.56234,-1.57016 -5.6255,-3.47741 -8.87178,-5.29803 -3.24628,-1.82061 -6.67548,-3.55448 -9.9025,-4.93199 -3.22702,-1.3775 -6.25166,-2.39856 -9.24749,-3.41001 -2.99582,-1.01145 -5.96266,-2.01324 -9.70021,-3.04396 -3.73755,-1.03072 -8.2456,-2.0903 -12.56114,-2.89947 -4.31553,-0.80916 -8.43828,-1.36786 -10.86578,-1.66648 -2.42751,-0.29862 -3.15958,-0.33715 9.72908,-0.35641 12.88866,-0.0193 39.39809,-0.0193 63.59587,-4.87429 24.19778,-4.85503 46.08303,-14.56468 73.74873,-33.36816 27.6657,-18.80348 61.11006,-46.69948 77.52433,-60.39729 16.41426,-13.69782 15.79778,-13.19693 15.70005,-13.10621 -0.0977,0.0907 0.3233,-0.22874 -7.9996,10.30974 -8.3229,10.53849 -25.38905,31.93406 -38.77732,50.56963 -13.38826,18.63558 -23.09792,34.5101 -29.49412,52.54288 -6.3962,18.03278 -9.47863,38.2227 -11.01988,57.25726 -1.54124,19.03457 -1.54124,36.91266 -1.84402,53.15332 -0.30278,16.24065 -0.90829,30.84263 -4.41584,48.37258 -3.50754,17.52995 -9.91668,37.98577 -19.79634,55.83587 -9.87966,17.85009 -23.22866,33.09233 -38.60176,45.23196 -15.3731,12.13962 -32.7688,21.17536 -48.60748,26.1485 -15.83869,4.97313 -30.11943,5.88343 -37.42342,6.32497 z"
         id="path30"
         inkscape:path-effect="#path-effect31"
         inkscape:original-d="m 413.05747,548.33202 c -0.32695,-0.0272 -0.65389,-0.0545 -0.98084,-0.0817 2.17965,-0.13623 4.35926,-0.27245 6.53895,-0.40868 2.72457,-0.46318 5.44907,-0.92635 8.17369,-1.38953 4.33206,-0.98084 8.66403,-1.96167 12.99617,-2.94253 3.01746,-0.91954 6.03485,-1.83906 9.05236,-2.75862 2.62921,-0.97403 5.25836,-1.94804 7.88762,-2.9221 2.3908,-1.02171 4.78156,-2.0434 7.17241,-3.06513 1.85951,-0.96722 3.71899,-1.93442 5.57854,-2.90166 1.73604,-0.91102 3.47204,-1.82203 5.20812,-2.73307 1.83023,-1.233 3.66042,-2.46597 5.49068,-3.69899 2.58159,-1.77243 5.16313,-3.54483 7.74477,-5.3173 1.96508,-1.48345 3.93013,-2.96687 5.89526,-4.45035 2.81277,-2.46599 5.62549,-4.93194 8.43832,-7.39798 3.00543,-3.09212 6.0108,-6.18419 9.01629,-9.27637 1.2908,-1.44492 2.58156,-2.88981 3.87238,-4.33476 1.7628,-2.30223 3.52557,-4.60442 5.2884,-6.9067 0.82842,-1.25227 1.65683,-2.5045 2.48526,-3.75679 1.1463,-1.74354 2.29258,-3.48704 3.43891,-5.23061 1.43528,-2.50452 2.87054,-5.00899 4.30585,-7.51357 0.84769,-1.62794 1.69536,-3.25585 2.54306,-4.88382 0.5587,-1.18483 1.11739,-2.36964 1.6761,-3.5545 0.86695,-1.93619 1.73389,-3.87234 2.60086,-5.80857 0.61649,-1.68574 1.23298,-3.37144 1.84949,-5.05721 0.6743,-1.8206 1.34858,-3.64116 2.02289,-5.46179 0.42384,-1.38713 0.84767,-2.77422 1.27152,-4.16137 0.53944,-2.05178 1.07887,-4.10353 1.61831,-6.15535 0.36605,-1.49308 0.73209,-2.98613 1.09814,-4.47925 0.32751,-1.88802 0.65502,-3.77601 0.98254,-5.66407 0.29862,-1.7917 0.59723,-3.58337 0.89585,-5.3751 0.22156,-1.53161 0.44311,-3.0632 0.66467,-4.59484 0.15412,-2.38893 0.30824,-4.77781 0.46237,-7.16679 0.0867,-2.02289 0.17338,-4.04573 0.26008,-6.06866 0.01,-2.18664 0.0189,-4.37324 0.0289,-6.55993 -0.12522,-1.86876 -0.25045,-3.73748 -0.37568,-5.60628 -0.24082,-2.16738 -0.48163,-4.33471 -0.72245,-6.50213 -0.29862,-2.36003 -0.59723,-4.72002 -0.89585,-7.0801 -0.47201,-2.41783 -0.94401,-4.83561 -1.41602,-7.25349 -0.63577,-2.71644 -1.27152,-5.43284 -1.9073,-8.14934 -0.63576,-2.01325 -1.27151,-4.02646 -1.90729,-6.03975 -0.85732,-2.59122 -1.71462,-5.18239 -2.57195,-7.77366 -0.66466,-1.62794 -1.32931,-3.25585 -1.99399,-4.88383 -0.94401,-2.17701 -1.88801,-4.35397 -2.83204,-6.53103 -0.94401,-1.7339 -1.88801,-3.46776 -2.83204,-5.2017 -1.22336,-2.18664 -2.4467,-4.37324 -3.67009,-6.55993 -1.15593,-1.87839 -2.31185,-3.75675 -3.4678,-5.63518 -1.12704,-1.59904 -2.25405,-3.19805 -3.38111,-4.79713 -0.97291,-1.27152 -1.9458,-2.54303 -2.91874,-3.81458 -1.47381,-1.85913 -2.9476,-3.71822 -4.42144,-5.57738 -1.51235,-1.66648 -3.02467,-3.33292 -4.53705,-4.99942 -1.7339,-1.71464 -3.46777,-3.42924 -5.2017,-5.14391 -1.8495,-1.77243 -3.69896,-3.54483 -5.54849,-5.3173 -2.2926,-1.86876 -4.58516,-3.73748 -6.87781,-5.60628 -1.86876,-1.42565 -3.73748,-2.85128 -5.60628,-4.27696 -2.06142,-1.23299 -4.12279,-2.46597 -6.18425,-3.69899 -3.06323,-1.90729 -6.12639,-3.81454 -9.18968,-5.72187 -3.42927,-1.73391 -6.85847,-3.46777 -10.28782,-5.20171 -3.02469,-1.02107 -6.04933,-2.04213 -9.07408,-3.06322 -2.9669,-1.00181 -5.93374,-2.0036 -8.9007,-3.00543 -4.50814,-1.05961 -9.01619,-2.1192 -13.52443,-3.17882 -4.12283,-0.55871 -8.24558,-1.1174 -12.3685,-1.67611 -0.73209,-0.0385 -1.46416,-0.0771 -2.19627,-0.11559 26.50943,0 53.01886,0 79.52829,0 21.88613,-9.71005 43.77138,-19.4197 65.65707,-29.12955 33.44571,-27.89711 66.89007,-55.79311 100.33511,-83.68966 -0.61651,0.50092 -1.23299,1.00181 -1.84949,1.50272 0.42104,-0.31947 0.84207,-0.63893 1.2631,-0.95839 -17.06683,21.39643 -34.13298,42.792 -51.19947,64.188 -9.71004,15.87515 -19.4197,31.74967 -29.12955,47.6245 -3.08255,20.19073 -6.16498,40.38065 -9.24747,60.57097 0,17.87881 0,35.7569 0,53.63536 -0.60556,14.60285 -1.21108,29.20483 -1.81663,43.80768 -6.40953,20.45705 -12.81867,40.91287 -19.22819,61.36991 -13.3498,15.24315 -26.6988,30.48539 -40.0486,45.72854 -17.3964,9.0361 -34.7921,18.07184 -52.18816,27.10777 -14.28131,0.91034 -28.56205,1.82064 -42.84308,2.73096 z"
         transform="matrix(-0.90658445,0,0,-0.90658445,496.9219,499.0732)"
         sodipodi:nodetypes="cccccccccccccccccccccccccccccccccccccccccccccccccccccccccccccccccccccccccccc" />
      <path
         style="display:inline;fill:url(#radialGradient36);fill-opacity:0.587838;stroke:#000000;stroke-width:5;stroke-linecap:round;stroke-linejoin:miter;stroke-dasharray:none;stroke-opacity:1;paint-order:markers fill stroke"
         d="m 420.03451,547.86324 c -7.30399,0.44155 -7.63093,0.41431 -6.70458,0.33258 0.92635,-0.0817 3.10596,-0.21795 5.55809,-0.51765 2.45213,-0.29971 5.17663,-0.76287 8.70497,-1.48489 3.52834,-0.72201 7.86031,-1.70284 11.53511,-2.65304 3.6748,-0.9502 6.69219,-1.86972 9.51555,-2.81652 2.82336,-0.94679 5.45251,-1.92081 7.96254,-2.91869 2.51003,-0.99788 4.90079,-2.01957 7.02597,-3.01404 2.12518,-0.99448 3.98466,-1.96168 5.78245,-2.90081 1.7978,-0.93913 3.5338,-1.85014 5.31696,-2.92216 1.78315,-1.07202 3.61334,-2.30499 5.81926,-3.80772 2.20593,-1.50272 4.78747,-3.27512 7.06083,-4.90308 2.27336,-1.62796 4.23841,-3.11138 6.62736,-5.08611 2.38895,-1.97474 5.20167,-4.44069 8.1108,-7.21977 2.90913,-2.77908 5.9145,-5.87115 8.06264,-8.1397 2.14815,-2.26855 3.43891,-3.71344 4.96572,-5.58703 1.52681,-1.87359 3.28958,-4.17578 4.5852,-5.95306 1.29563,-1.77727 2.12403,-3.0295 3.1114,-4.52742 0.98737,-1.49791 2.13365,-3.24141 3.42446,-5.36545 1.2908,-2.12405 2.72606,-4.62852 3.86756,-6.69478 1.1415,-2.06626 1.98917,-3.69417 2.69237,-5.10057 0.7032,-1.4064 1.26189,-2.59121 1.97472,-4.15173 0.71283,-1.56053 1.57977,-3.49668 2.3215,-5.30766 0.74174,-1.81099 1.35822,-3.49669 2.00362,-5.24988 0.64541,-1.75318 1.31969,-3.57374 1.86877,-5.17762 0.54907,-1.60388 0.9729,-2.99097 1.45454,-4.71044 0.48165,-1.71946 1.02107,-3.77121 1.47382,-5.54366 0.45275,-1.77245 0.81878,-3.2655 1.16557,-4.95607 0.34678,-1.69057 0.67429,-3.57856 0.98736,-5.41844 0.31307,-1.83988 0.61168,-3.63155 0.87177,-5.29322 0.26009,-1.66167 0.48164,-3.19326 0.66948,-5.15354 0.18784,-1.96029 0.34196,-4.34917 0.46237,-6.55511 0.12041,-2.20593 0.2071,-4.22877 0.25527,-6.33356 0.0482,-2.10478 0.0578,-4.29138 0,-6.3191 -0.0578,-2.02773 -0.18302,-3.89645 -0.36604,-5.91454 -0.18303,-2.01809 -0.42384,-4.18542 -0.69356,-6.44915 -0.26972,-2.26372 -0.56833,-4.62371 -0.95364,-7.01267 -0.38532,-2.38895 -0.85731,-4.80673 -1.4112,-7.37389 -0.5539,-2.56716 -1.18965,-5.28356 -1.82542,-7.64843 -0.63577,-2.36488 -1.27152,-4.37809 -2.01807,-6.68034 -0.74655,-2.30226 -1.60385,-4.89343 -2.36484,-7.00304 -0.761,-2.1096 -1.42565,-3.73751 -2.23,-5.64 -0.80434,-1.9025 -1.74834,-4.07946 -2.69236,-6.03494 -0.94402,-1.95548 -1.88802,-3.68934 -2.97171,-5.64963 -1.0837,-1.96029 -2.30704,-4.14689 -3.4967,-6.17943 -1.18966,-2.03254 -2.34558,-3.9109 -3.48707,-5.64964 -1.1415,-1.73873 -2.26851,-3.33774 -3.31849,-4.77304 -1.04999,-1.4353 -2.02289,-2.70681 -3.24626,-4.27215 -1.22337,-1.56534 -2.69716,-3.42443 -4.19026,-5.18725 -1.49309,-1.76282 -3.00541,-3.42926 -4.62855,-5.11983 -1.62314,-1.69057 -3.35701,-3.40517 -5.14872,-5.14872 -1.79172,-1.74355 -3.64118,-3.51595 -5.71224,-5.33657 -2.07107,-1.82061 -4.36363,-3.68933 -6.44433,-5.33656 -2.08071,-1.64722 -3.94943,-3.07285 -5.91454,-4.40219 -1.96511,-1.32934 -4.02648,-2.56231 -6.58883,-4.13246 -2.56234,-1.57016 -5.6255,-3.47741 -8.87178,-5.29803 -3.24628,-1.82061 -6.67548,-3.55448 -9.9025,-4.93199 -3.22702,-1.3775 -6.25166,-2.39856 -9.24749,-3.41001 -2.99582,-1.01145 -5.96266,-2.01324 -9.70021,-3.04396 -3.73755,-1.03072 -8.2456,-2.0903 -12.56114,-2.89947 -4.31553,-0.80916 -8.43828,-1.36786 -10.86578,-1.66648 -2.42751,-0.29862 -3.15958,-0.33715 9.72908,-0.35641 12.88866,-0.0193 39.39809,-0.0193 63.59587,-4.87429 24.19778,-4.85503 46.08303,-14.56468 73.74873,-33.36816 27.6657,-18.80348 61.11006,-46.69948 77.52433,-60.39729 16.41426,-13.69782 15.79778,-13.19693 15.70005,-13.10621 -0.0977,0.0907 0.3233,-0.22874 -7.9996,10.30974 -8.3229,10.53849 -25.38905,31.93406 -38.77732,50.56963 -13.38826,18.63558 -23.09792,34.5101 -29.49412,52.54288 -6.3962,18.03278 -9.47863,38.2227 -11.01988,57.25726 -1.54124,19.03457 -1.54124,36.91266 -1.84402,53.15332 -0.30278,16.24065 -0.90829,30.84263 -4.41584,48.37258 -3.50754,17.52995 -9.91668,37.98577 -19.79634,55.83587 -9.87966,17.85009 -23.22866,33.09233 -38.60176,45.23196 -15.3731,12.13962 -32.7688,21.17536 -48.60748,26.1485 -15.83869,4.97313 -30.11943,5.88343 -37.42342,6.32497 z"
         id="path12"
         inkscape:path-effect="#path-effect12"
         inkscape:original-d="m 413.05747,548.33202 c -0.32695,-0.0272 -0.65389,-0.0545 -0.98084,-0.0817 2.17965,-0.13623 4.35926,-0.27245 6.53895,-0.40868 2.72457,-0.46318 5.44907,-0.92635 8.17369,-1.38953 4.33206,-0.98084 8.66403,-1.96167 12.99617,-2.94253 3.01746,-0.91954 6.03485,-1.83906 9.05236,-2.75862 2.62921,-0.97403 5.25836,-1.94804 7.88762,-2.9221 2.3908,-1.02171 4.78156,-2.0434 7.17241,-3.06513 1.85951,-0.96722 3.71899,-1.93442 5.57854,-2.90166 1.73604,-0.91102 3.47204,-1.82203 5.20812,-2.73307 1.83023,-1.233 3.66042,-2.46597 5.49068,-3.69899 2.58159,-1.77243 5.16313,-3.54483 7.74477,-5.3173 1.96508,-1.48345 3.93013,-2.96687 5.89526,-4.45035 2.81277,-2.46599 5.62549,-4.93194 8.43832,-7.39798 3.00543,-3.09212 6.0108,-6.18419 9.01629,-9.27637 1.2908,-1.44492 2.58156,-2.88981 3.87238,-4.33476 1.7628,-2.30223 3.52557,-4.60442 5.2884,-6.9067 0.82842,-1.25227 1.65683,-2.5045 2.48526,-3.75679 1.1463,-1.74354 2.29258,-3.48704 3.43891,-5.23061 1.43528,-2.50452 2.87054,-5.00899 4.30585,-7.51357 0.84769,-1.62794 1.69536,-3.25585 2.54306,-4.88382 0.5587,-1.18483 1.11739,-2.36964 1.6761,-3.5545 0.86695,-1.93619 1.73389,-3.87234 2.60086,-5.80857 0.61649,-1.68574 1.23298,-3.37144 1.84949,-5.05721 0.6743,-1.8206 1.34858,-3.64116 2.02289,-5.46179 0.42384,-1.38713 0.84767,-2.77422 1.27152,-4.16137 0.53944,-2.05178 1.07887,-4.10353 1.61831,-6.15535 0.36605,-1.49308 0.73209,-2.98613 1.09814,-4.47925 0.32751,-1.88802 0.65502,-3.77601 0.98254,-5.66407 0.29862,-1.7917 0.59723,-3.58337 0.89585,-5.3751 0.22156,-1.53161 0.44311,-3.0632 0.66467,-4.59484 0.15412,-2.38893 0.30824,-4.77781 0.46237,-7.16679 0.0867,-2.02289 0.17338,-4.04573 0.26008,-6.06866 0.01,-2.18664 0.0189,-4.37324 0.0289,-6.55993 -0.12522,-1.86876 -0.25045,-3.73748 -0.37568,-5.60628 -0.24082,-2.16738 -0.48163,-4.33471 -0.72245,-6.50213 -0.29862,-2.36003 -0.59723,-4.72002 -0.89585,-7.0801 -0.47201,-2.41783 -0.94401,-4.83561 -1.41602,-7.25349 -0.63577,-2.71644 -1.27152,-5.43284 -1.9073,-8.14934 -0.63576,-2.01325 -1.27151,-4.02646 -1.90729,-6.03975 -0.85732,-2.59122 -1.71462,-5.18239 -2.57195,-7.77366 -0.66466,-1.62794 -1.32931,-3.25585 -1.99399,-4.88383 -0.94401,-2.17701 -1.88801,-4.35397 -2.83204,-6.53103 -0.94401,-1.7339 -1.88801,-3.46776 -2.83204,-5.2017 -1.22336,-2.18664 -2.4467,-4.37324 -3.67009,-6.55993 -1.15593,-1.87839 -2.31185,-3.75675 -3.4678,-5.63518 -1.12704,-1.59904 -2.25405,-3.19805 -3.38111,-4.79713 -0.97291,-1.27152 -1.9458,-2.54303 -2.91874,-3.81458 -1.47381,-1.85913 -2.9476,-3.71822 -4.42144,-5.57738 -1.51235,-1.66648 -3.02467,-3.33292 -4.53705,-4.99942 -1.7339,-1.71464 -3.46777,-3.42924 -5.2017,-5.14391 -1.8495,-1.77243 -3.69896,-3.54483 -5.54849,-5.3173 -2.2926,-1.86876 -4.58516,-3.73748 -6.87781,-5.60628 -1.86876,-1.42565 -3.73748,-2.85128 -5.60628,-4.27696 -2.06142,-1.23299 -4.12279,-2.46597 -6.18425,-3.69899 -3.06323,-1.90729 -6.12639,-3.81454 -9.18968,-5.72187 -3.42927,-1.73391 -6.85847,-3.46777 -10.28782,-5.20171 -3.02469,-1.02107 -6.04933,-2.04213 -9.07408,-3.06322 -2.9669,-1.00181 -5.93374,-2.0036 -8.9007,-3.00543 -4.50814,-1.05961 -9.01619,-2.1192 -13.52443,-3.17882 -4.12283,-0.55871 -8.24558,-1.1174 -12.3685,-1.67611 -0.73209,-0.0385 -1.46416,-0.0771 -2.19627,-0.11559 26.50943,0 53.01886,0 79.52829,0 21.88613,-9.71005 43.77138,-19.4197 65.65707,-29.12955 33.44571,-27.89711 66.89007,-55.79311 100.33511,-83.68966 -0.61651,0.50092 -1.23299,1.00181 -1.84949,1.50272 0.42104,-0.31947 0.84207,-0.63893 1.2631,-0.95839 -17.06683,21.39643 -34.13298,42.792 -51.19947,64.188 -9.71004,15.87515 -19.4197,31.74967 -29.12955,47.6245 -3.08255,20.19073 -6.16498,40.38065 -9.24747,60.57097 0,17.87881 0,35.7569 0,53.63536 -0.60556,14.60285 -1.21108,29.20483 -1.81663,43.80768 -6.40953,20.45705 -12.81867,40.91287 -19.22819,61.36991 -13.3498,15.24315 -26.6988,30.48539 -40.0486,45.72854 -17.3964,9.0361 -34.7921,18.07184 -52.18816,27.10777 -14.28131,0.91034 -28.56205,1.82064 -42.84308,2.73096 z"
         transform="matrix(0.90658445,0,0,0.90658445,-228.34564,-228.34564)"
         sodipodi:nodetypes="cccccccccccccccccccccccccccccccccccccccccccccccccccccccccccccccccccccccccccc" />
    </g>
    <path
       style="fill:none;fill-opacity:0.587838;stroke:url(#radialGradient8);stroke-width:5;stroke-linecap:round;stroke-linejoin:bevel;stroke-dasharray:none"
       d="m 305.37861,304.80065 c -1.79169,1.7917 -3.19808,3.44854 -4.77788,5.36548 -1.57979,1.91695 -3.33292,4.09392 -5.07647,6.28058 -1.74355,2.18666 -3.47742,4.3829 -4.81639,6.17461 -1.33896,1.79171 -2.28295,3.1788 -3.4967,5.03796 -1.21375,1.85915 -2.69714,4.19019 -4.11319,6.7044 -1.41605,2.5142 -2.76461,5.21133 -3.93982,7.74478 -1.17521,2.53344 -2.177,4.90306 -3.22698,7.55211 -1.04999,2.64904 -2.1481,5.57735 -3.04396,8.1397 -0.89586,2.56234 -1.58941,4.75857 -2.22518,7.15716 -0.63577,2.39859 -1.21372,4.99939 -1.77243,7.81219 -0.55871,2.81281 -1.09813,5.83744 -1.57014,9.13189 -0.47201,3.29445 -0.87658,6.85851 -1.07887,9.93139 -0.20229,3.07289 -0.20229,5.65443 -0.17339,8.29384 0.0289,2.63941 0.0867,5.33653 0.24082,8.21677 0.15413,2.88023 0.40458,5.9434 0.761,8.77546 0.35641,2.83207 0.81878,5.43287 1.31969,7.91815 0.50091,2.48528 1.04033,4.8549 1.74353,7.55211 0.70321,2.69721 1.57014,5.72185 2.4082,8.34199 0.83806,2.62014 1.6472,4.83563 2.62013,7.36908 0.97292,2.53346 2.10956,5.38471 3.18845,7.78329 1.07888,2.39858 2.09993,4.34437 3.38111,6.70443 1.28118,2.36006 2.82239,5.13425 4.21916,7.48466 1.39676,2.35042 2.649,4.27694 3.75479,6.35819 1.10579,2.08126 1.99389,4.15118 2.45333,6.92826 0.45944,2.77708 0.38192,5.52333 0.74202,7.84255 0.36011,2.31922 1.09485,3.70483 2.58551,4.64891 1.49065,0.94408 3.52994,1.28495 5.36322,0.85409 1.83329,-0.43086 3.39375,-1.64455 11.78236,-2.0025 8.38862,-0.35795 23.60481,0.13988 39.22608,-2.09902 15.62127,-2.23889 31.64725,-7.21449 47.99753,-14.71553 16.35028,-7.50105 33.02453,-17.5274 48.39121,-30.98691 15.36668,-13.45951 29.42489,-30.35116 37.87856,-49.59006 8.45368,-19.2389 11.30193,-40.82337 11.79235,-56.13538 0.49042,-15.31201 -1.37703,-24.35128 -1.76584,-29.85179 -0.38882,-5.50051 0.70098,-7.46215 1.1661,-9.50424 0.46512,-2.0421 0.30553,-4.16443 -0.68525,-5.3184 -0.99078,-1.15398 -2.81261,-1.33945 -4.79833,-1.35183 -1.98573,-0.0124 -4.13506,0.14836 -6.33655,-0.45023 -2.20149,-0.59858 -4.45489,-1.95644 -6.56418,-3.30006 -2.10929,-1.34362 -4.07434,-2.67291 -6.06834,-3.96372 -1.99401,-1.29081 -4.01686,-2.54305 -6.47325,-3.93982 -2.45639,-1.39677 -5.34616,-2.93798 -7.69658,-4.13245 -2.35042,-1.19447 -4.16135,-2.04214 -6.70444,-3.10176 -2.54309,-1.05962 -5.81817,-2.33112 -8.67913,-3.30404 -2.86096,-0.97292 -5.30764,-1.6472 -7.57136,-2.26371 -2.26373,-0.6165 -4.34437,-1.17519 -6.22278,-1.59903 -1.87841,-0.42385 -3.55449,-0.71283 -5.58703,-1.05961 -2.03254,-0.34679 -4.42142,-0.75136 -6.79111,-1.05961 -2.36969,-0.30825 -4.72004,-0.52017 -7.61954,-0.69356 -2.89951,-0.17339 -6.34798,-0.30825 -9.58463,-0.30825 -3.23664,0 -6.26128,0.13486 -9.07408,0.30825 -2.8128,0.17339 -5.4136,0.38531 -7.89888,0.7032 -2.48528,0.31788 -4.8549,0.74172 -7.19569,1.2041 -2.34079,0.46238 -4.65261,0.96327 -6.74294,1.42565 -2.09034,0.46238 -3.95907,0.88622 -6.42509,1.58942 -2.46602,0.7032 -5.52919,1.68573 -7.94703,2.53342 -2.41785,0.84769 -4.19025,1.5605 -6.0494,2.34077 -1.85915,0.78026 -3.80493,1.62793 -6.01087,2.68755 -2.20593,1.05962 -4.67187,2.33112 -7.40761,3.86275 -2.73574,1.53163 -5.74111,3.32329 -8.52501,5.13427 -2.7839,1.81099 -5.34617,3.64118 -7.83146,5.50996 -2.48528,1.86878 -4.89343,3.77603 -7.18605,5.69298 -2.29263,1.91694 -4.4696,3.84346 -6.2613,5.63516 z"
       id="path2"
       inkscape:path-effect="#path-effect2"
       inkscape:original-d="m 304.9933,304.93551 c -1.40638,1.65684 -2.81277,3.31368 -4.21916,4.97052 -1.7532,2.17705 -3.50633,4.35402 -5.2595,6.53103 -1.73393,2.19631 -3.4678,4.39255 -5.2017,6.58882 -0.94403,1.38715 -1.88803,2.77424 -2.83204,4.16137 -1.48348,2.33118 -2.96687,4.66222 -4.45035,6.9934 -1.34862,2.69723 -2.69718,5.39436 -4.04577,8.09154 -1.00183,2.36971 -2.00362,4.73933 -3.00543,7.109 -1.09816,2.92842 -2.19628,5.85673 -3.29441,8.7851 -0.69358,2.19632 -1.38712,4.39255 -2.08069,6.58883 -0.57797,2.6009 -1.15593,5.2017 -1.7339,7.80255 -0.53944,3.02476 -1.07887,6.04939 -1.61831,9.07409 -0.40458,3.5642 -0.80915,7.12826 -1.21373,10.69239 0,2.58164 0,5.16318 0,7.74476 0.0578,2.69724 0.1156,5.39436 0.17339,8.09154 0.25046,3.06329 0.50091,6.12646 0.75136,9.18968 0.46238,2.60091 0.92475,5.20171 1.38712,7.80256 0.53945,2.36971 1.07887,4.73933 1.61831,7.109 0.86697,3.02475 1.7339,6.04939 2.60085,9.07408 0.80917,2.21559 1.61831,4.43108 2.42747,6.64663 1.13669,2.85136 2.27333,5.70261 3.41,8.55391 1.0211,1.94586 2.04215,3.89165 3.06323,5.83747 1.54128,2.7743 3.08249,5.54849 4.62374,8.32273 1.25228,1.92659 2.50452,3.85311 3.75678,5.77967 0.95932,2.23595 1.84742,4.30587 2.85669,6.65824 -0.0904,3.20179 -0.16791,5.94804 -0.25583,9.06247 0.80813,1.52401 1.54287,2.90962 2.35152,4.43461 2.17266,0.36317 4.21195,0.70404 6.31798,1.05607 1.56054,-1.21375 3.121,-2.42744 4.68153,-3.64119 15.2167,0.49785 30.43289,0.99568 45.64935,1.49352 16.02608,-4.97563 32.05206,-9.95123 48.07821,-14.92688 16.67441,-10.02644 33.34866,-20.05279 50.02299,-30.07918 14.05903,-16.89263 28.11724,-33.78428 42.17624,-50.67688 2.84835,-21.5852 5.6966,-43.16967 8.54489,-64.75442 -1.86745,-9.03927 -3.7349,-18.07854 -5.60236,-27.11787 1.08983,-1.96169 2.17963,-3.92333 3.26948,-5.88506 -0.1596,-2.12246 -0.3192,-4.24479 -0.47881,-6.36725 -1.82195,-0.18549 -3.64378,-0.37096 -5.46574,-0.55645 -2.14949,0.16074 -4.29882,0.32147 -6.4483,0.48221 -2.2535,-1.35791 -4.5069,-2.71577 -6.76035,-4.07366 -1.96513,-1.32935 -3.93018,-2.65864 -5.89527,-3.98797 -2.02292,-1.25229 -4.04577,-2.50452 -6.06865,-3.75679 -2.8899,-1.54127 -5.77967,-3.08249 -8.66951,-4.62373 -1.811,-0.84771 -3.62193,-1.69537 -5.43289,-2.54306 -3.27522,-1.27155 -6.5503,-2.54306 -9.82545,-3.81458 -2.44677,-0.67431 -4.89345,-1.34859 -7.34018,-2.02289 -2.08072,-0.55871 -4.16136,-1.1174 -6.24205,-1.6761 -1.67613,-0.28899 -3.35221,-0.57797 -5.02831,-0.86695 -2.38898,-0.40459 -4.77786,-0.80916 -7.16679,-1.21374 -2.35045,-0.21192 -4.7008,-0.42384 -7.0512,-0.63576 -3.44861,-0.13486 -6.89708,-0.26972 -10.34562,-0.40458 -3.02475,0.13487 -6.04939,0.26972 -9.07408,0.40458 -2.60091,0.21193 -5.20171,0.42384 -7.80256,0.63576 -2.36971,0.42386 -4.73933,0.84769 -7.109,1.27153 -2.31191,0.50092 -4.62373,1.00181 -6.9356,1.50272 -1.8688,0.42385 -3.73753,0.84768 -5.60629,1.27153 -3.06328,0.98256 -6.12645,1.96508 -9.18967,2.94763 -1.77247,0.71284 -3.54487,1.42565 -5.3173,2.13848 -1.94587,0.8477 -3.89165,1.69537 -5.83747,2.54305 -2.46605,1.27156 -4.93199,2.54306 -7.39798,3.81459 -3.00549,1.79173 -6.01086,3.58339 -9.01629,5.37509 -2.56237,1.83027 -5.12464,3.66046 -7.68697,5.49069 -2.40824,1.90733 -4.81639,3.81458 -7.22459,5.72188 -2.17705,1.92659 -4.35402,3.85311 -6.53103,5.77967 z"
       sodipodi:nodetypes="cccccccccccccccccccccccccccccccccccccccccccccccccccccccccccccccc" />
  </g>
</svg>
